<svg xmlns="http://www.w3.org/2000/svg" viewBox="0 0 500 500"><path fill="#4F46E5" d="M433.69 142.27h-48.34s-.23 27.82-.55 33.14h48.89a33.18 33.18 0 0 1 33.15 33.15v82.87a33.18 33.18 0 0 1-33.15 33.16h-92.54c-19.28 0-33.58-1.9-44.19-5.5-15.09-5.12-22.7-13.69-26.51-25.25-7.47.34-14.42.36-20.47.36-4.52 0-9.07 0-13.44.1 5.4 25.7 20.15 49.27 60.42 58.86a169.6 169.6 0 0 0 27.62 4v76.54a33.18 33.18 0 0 1-33.14 33.15h-82.88a33.19 33.19 0 0 1-33.16-33.15v-92.53c0-74.59 28.08-74.59 74.58-74.59 45.49 0 107.75 0 107.75-107.75V66.3A66.37 66.37 0 0 0 291.44 0h-82.88a66.37 66.37 0 0 0-66.31 66.3v76h-76A66.36 66.36 0 0 0 0 208.56v82.87a66.37 66.37 0 0 0 66.3 66.3h48.34v-16.56c0-5.81.22-11.27.55-16.58h-48.9a33.17 33.17 0 0 1-33.14-33.16v-82.87a33.17 33.17 0 0 1 33.14-33.15h92.54c19.32 0 33.6 1.9 44.19 5.49 15.08 5.12 22.7 13.69 26.53 25.25 7.46-.33 14.41-.36 20.43-.36 4.54 0 9.1 0 13.48-.1-5.4-25.69-20.16-49.26-60.46-58.86a168.41 168.41 0 0 0-27.62-4V66.3a33.19 33.19 0 0 1 33.16-33.15h82.88a33.18 33.18 0 0 1 33.16 33.15v92.53c0 74.58-28.07 74.58-74.6 74.59-45.45 0-107.73 0-107.73 107.75v92.53a66.38 66.38 0 0 0 66.31 66.3h82.88a66.37 66.37 0 0 0 66.29-66.3v-76h76A66.39 66.39 0 0 0 500 291.43v-82.87a66.38 66.38 0 0 0-66.31-66.29Z"/></svg>